<?xml version="1.0" encoding="iso-8859-1"?>
<!-- Generator: Adobe Illustrator 19.0.0, SVG Export Plug-In . SVG Version: 6.00 Build 0)  -->
<svg version="1.1" id="Layer_1" xmlns="http://www.w3.org/2000/svg" xmlns:xlink="http://www.w3.org/1999/xlink" x="0px" y="0px"
	 viewBox="0 0 512 512" style="enable-background:new 0 0 512 512;" xml:space="preserve">
<g>
	<g>
		<g>
			<path d="M384,0H128c-23.531,0-42.667,19.135-42.667,42.667V448c0,23.531,19.135,42.667,42.667,42.667v10.667
				c0,5.896,4.771,10.667,10.667,10.667H160c5.896,0,10.667-4.771,10.667-10.667v-10.667h170.667v10.667
				c0,5.896,4.771,10.667,10.667,10.667h21.333c5.896,0,10.667-4.771,10.667-10.667v-10.667c23.531,0,42.667-19.135,42.667-42.667
				V42.667C426.667,19.135,407.531,0,384,0z M405.333,448c0,11.76-9.573,21.333-21.333,21.333H128
				c-11.76,0-21.333-9.573-21.333-21.333V170.667h298.667V448z M405.333,149.333H106.667V42.667c0-11.76,9.573-21.333,21.333-21.333
				h256c11.76,0,21.333,9.573,21.333,21.333V149.333z"/>
			<path d="M202.667,85.333H160c0-2.729-1.042-5.458-3.125-7.542c-4.167-4.167-10.917-4.167-15.083,0l-10.667,10.667
				c-3.052,3.052-3.969,7.635-2.313,11.625c1.646,3.99,5.542,6.583,9.854,6.583h64c5.896,0,10.667-4.771,10.667-10.667
				S208.563,85.333,202.667,85.333z"/>
			<path d="M138.667,234.667h64c5.896,0,10.667-4.771,10.667-10.667s-4.771-10.667-10.667-10.667H160
				c0-2.729-1.042-5.458-3.125-7.542c-4.167-4.167-10.917-4.167-15.083,0l-10.667,10.667c-3.052,3.052-3.969,7.635-2.313,11.625
				C130.458,232.073,134.354,234.667,138.667,234.667z"/>
		</g>
	</g>
</g>
<g>
</g>
<g>
</g>
<g>
</g>
<g>
</g>
<g>
</g>
<g>
</g>
<g>
</g>
<g>
</g>
<g>
</g>
<g>
</g>
<g>
</g>
<g>
</g>
<g>
</g>
<g>
</g>
<g>
</g>
</svg>
